<?xml version="1.0" encoding="UTF-8"?>
<svg id="Capa_1" data-name="Capa 1" xmlns="http://www.w3.org/2000/svg" viewBox="0 0 1080 1080">
  <defs>
    <style>
      .cls-1 {
        fill: #ffa56e;
      }
    </style>
  </defs>
  <path class="cls-1" d="M521.98,79.93v163.59c-70.14,48.86-127.16,116-163.77,193.29h-152.22c51.73-152.95,175.05-287.38,315.99-356.87Z"/>
  <path class="cls-1" d="M803.61,295.98c-76.18-.16-150.88,24.86-211.23,70.38v.03h-.03c-26.64,20.02-50.36,43.74-70.38,70.38v.03h-.03c-31.16,41.49-52.94,89.53-63.34,140.82-4.62,22.76-7.04,46.3-7.04,70.41v352.04h140.82v-70.38s-.03,0-.03-.03h.03v-281.64c0-24.7,4.25-48.38,12.03-70.41,28.83-83.18,110.67-141.57,199.2-140.82,0,0,70.41,0,70.41,0v-140.82h-70.41Z"/>
</svg>